<svg xmlns="http://www.w3.org/2000/svg" viewBox="0 0 500 500"><g id="freepik--Floor--inject-144"><path d="M107.58,426.56c81.26,39.87,213,39.88,294.26,0s81.25-104.53,0-144.41-213-39.88-294.26,0S26.33,386.68,107.58,426.56Z" style="fill:#f5f5f5"></path></g><g id="freepik--Device--inject-144"><g id="freepik--device--inject-144"><path d="M253.49,247.28,216,268.93a7,7,0,0,0-3,4.32l-9.32,53.81a4.47,4.47,0,0,0,2,4.32l24.18,14a5.59,5.59,0,0,0,5,0l51.68-29.84a4.74,4.74,0,0,0,0-8.37L268,296.4a6.44,6.44,0,0,1-2.82-4.35L261,251.44a6.23,6.23,0,0,0-2.66-4.25A5.36,5.36,0,0,0,253.49,247.28Z" style="fill:#263238"></path><path d="M232.37,335.88v10.06a5.16,5.16,0,0,0,2.52-.6l51.68-29.84a5.38,5.38,0,0,0,2.52-4.18,5,5,0,0,0-1-2.73h-8.46Z" style="fill:#455a64"></path><path d="M258.21,250l-37.5,21.66a7,7,0,0,0-3,4.32l-8.47,48.84a4.5,4.5,0,0,0,2,4.33l18.59,10.73a5.59,5.59,0,0,0,5,0L286.57,310c1.4-.8,1.4-2.1,0-2.91L268,296.4a6.44,6.44,0,0,1-2.82-4.35L261,251.44A1.75,1.75,0,0,0,258.21,250Z" style="fill:#263238"></path><path d="M286.57,307.13,268,296.4a5.83,5.83,0,0,1-1.85-1.85L209.59,327.2a4.27,4.27,0,0,0,1.67,1.95l18.59,10.73a5.59,5.59,0,0,0,5,0L286.57,310C288,309.24,288,307.94,286.57,307.13Z" style="fill:#37474f"></path><path d="M134.31,354.3l-2.4-1.39a7.79,7.79,0,0,1-3.53-6.11v-161a7.77,7.77,0,0,1,3.53-6.1l196.76-113a7.81,7.81,0,0,1,7.06,0l1.83,1a7.8,7.8,0,0,1,3.53,6.11V234.91a7.79,7.79,0,0,1-3.53,6.11L141.37,354.3A7.84,7.84,0,0,1,134.31,354.3Z" style="fill:#455a64"></path><path d="M142.56,189.86l-13.14-7.59a7.21,7.21,0,0,0-1,3.48V346.8a7.79,7.79,0,0,0,3.53,6.11l2.4,1.39a7.84,7.84,0,0,0,7.06,0l1.19-.7Z" style="fill:#263238"></path><path d="M137.84,352.26v-161a7.79,7.79,0,0,1,3.53-6.11L337.56,71.82c1.95-1.12,3.53-.21,3.53,2V234.91a7.79,7.79,0,0,1-3.53,6.11L141.37,354.3C139.42,355.42,137.84,354.51,137.84,352.26Z" style="fill:#37474f"></path><path d="M230,292.23l18.59-10.74c1.39-.8,2.52-.23,2.52,1.28a5.39,5.39,0,0,1-2.52,4.18L230,297.69c-1.4.8-2.52.23-2.52-1.28A5.38,5.38,0,0,1,230,292.23Z" style="fill:#e0e0e0"></path><path d="M146.88,190,331.65,83c1.11-.64,2-.12,2,1.16V224.57a4.46,4.46,0,0,1-2,3.49L146.88,334.74c-1.12.64-2,.12-2-1.17v-140A4.46,4.46,0,0,1,146.88,190Z" style="fill:#fff"></path></g></g><g id="freepik--Window--inject-144"><g id="freepik--Tab--inject-144"><path d="M160.2,193.53l193.91-112c3.08-1.77,5.6-.32,5.6,3.23V211.31a5.77,5.77,0,0,1-2.6,4.5L159.2,330.08c-1.43.83-2.6.15-2.6-1.5V199.77A8,8,0,0,1,160.2,193.53Z" style="fill:#e0e0e0"></path><path d="M359.71,87.71V84.79c0-3.55-2.52-5-5.6-3.23l-193.91,112a8,8,0,0,0-3.6,6.24V205Z" style="fill:#407BFF"></path><path d="M336.24,94.37a4.24,4.24,0,0,0-1.92,3.33c0,1.23.86,1.73,1.92,1.12a4.26,4.26,0,0,0,1.93-3.34C338.17,94.25,337.31,93.75,336.24,94.37Z" style="fill:#fff"></path><path d="M343.89,90A4.26,4.26,0,0,0,342,93.29c0,1.23.86,1.73,1.93,1.11a4.27,4.27,0,0,0,1.93-3.34C345.82,89.83,345,89.34,343.89,90Z" style="fill:#fff"></path><path d="M351.54,85.54a4.24,4.24,0,0,0-1.93,3.33c0,1.23.86,1.73,1.93,1.12a4.27,4.27,0,0,0,1.92-3.34C353.46,85.42,352.6,84.92,351.54,85.54Z" style="fill:#fff"></path></g></g><g id="freepik--Charts--inject-144"><g id="freepik--Graphics--inject-144"><path d="M347.46,109.94c-.16-.53-.66-.7-1.25-.36L222.89,180.79a2.61,2.61,0,0,0-.92,1l-4.06-2.35a2.61,2.61,0,0,1,.92-1l123.32-71.2a2.84,2.84,0,0,1,2.6,0l1.46.84A2.86,2.86,0,0,1,347.46,109.94Z" style="fill:#ebebeb"></path><path d="M347.51,110.33v53.29a2.86,2.86,0,0,1-1.3,2.25l-123.32,71.2-.18.09a1.09,1.09,0,0,1-.24.07h0c-.49.07-.84-.28-.84-.92V183a2.67,2.67,0,0,1,.38-1.28,2.61,2.61,0,0,1,.92-1l123.32-71.21c.59-.34,1.09-.17,1.25.36a.3.3,0,0,1,0,.1A1.43,1.43,0,0,1,347.51,110.33Z" style="fill:#fafafa"></path><path d="M222.43,237.24a3,3,0,0,1-1.23.11,2.26,2.26,0,0,1-.91-.28l-1.46-.84a2.89,2.89,0,0,1-1.3-2.25V180.69a2.62,2.62,0,0,1,.38-1.28l4.06,2.35a2.67,2.67,0,0,0-.38,1.28v53.28C221.59,237,221.94,237.31,222.43,237.24Z" style="fill:#e0e0e0"></path><path d="M343.68,138.88a.5.5,0,0,0-.68.22l-4.36,8.63a1.57,1.57,0,0,0-.46-.43,1.91,1.91,0,0,0-1.93.14,5.08,5.08,0,0,0-2.24,3.37l-8.38-1.36a1.74,1.74,0,0,0-.8-1.32,1.93,1.93,0,0,0-1.94.14,4.37,4.37,0,0,0-1.28,1.19L311,139.76a4.51,4.51,0,0,0,.47-1.89,1.73,1.73,0,0,0-2.78-1.6,5,5,0,0,0-2.28,3.95,1.91,1.91,0,0,0,.83,1.73l-7.55,22.73a2.06,2.06,0,0,0-1.57.29,4.8,4.8,0,0,0-1.78,2l-9.08-6.55s0-.08,0-.13a1.73,1.73,0,0,0-2.78-1.6,5,5,0,0,0-2.28,4,2.27,2.27,0,0,0,.35,1.27l-7.35,21.54a2.31,2.31,0,0,0-1,.34,5,5,0,0,0-2.26,3.64L260.56,196a1.65,1.65,0,0,0-.72-1,1.91,1.91,0,0,0-1.94.15,5,5,0,0,0-2.11,2.83l-7.35-3a4,4,0,0,0,.05-.59,1.73,1.73,0,0,0-2.78-1.61,5,5,0,0,0-2.28,3.95,2.49,2.49,0,0,0,.15.86l-8.39,16.05a2,2,0,0,0-1.66.25,5,5,0,0,0-2.26,3.65L225.4,221a.51.51,0,0,0-.18.69.5.5,0,0,0,.43.25.55.55,0,0,0,.25-.07l5.47-3.16a1.65,1.65,0,0,0,.72,1,1.62,1.62,0,0,0,.78.2,2.36,2.36,0,0,0,1.16-.34,5,5,0,0,0,2.28-4,2.18,2.18,0,0,0-.33-1.21l8.28-15.82a0,0,0,0,0,0,0,1.45,1.45,0,0,0,.77.2,2.33,2.33,0,0,0,1.16-.34,4.92,4.92,0,0,0,1.95-2.4l7.47,3s0,.07,0,.11a1.92,1.92,0,0,0,.84,1.75,1.62,1.62,0,0,0,.78.2,2.35,2.35,0,0,0,1.16-.35,5,5,0,0,0,2.26-3.64L272,190.54a1.63,1.63,0,0,0,.72,1,1.52,1.52,0,0,0,.78.21,2.38,2.38,0,0,0,1.16-.35,5,5,0,0,0,2.28-3.95,1.94,1.94,0,0,0-.77-1.69l7.23-21.17a1.42,1.42,0,0,0,.42.06,2.38,2.38,0,0,0,1.16-.35,5,5,0,0,0,2.07-2.73l8.92,6.42a3.74,3.74,0,0,0-.14,1,1.92,1.92,0,0,0,.84,1.75,1.62,1.62,0,0,0,.78.2,2.35,2.35,0,0,0,1.16-.35,5,5,0,0,0,2.28-4,2.19,2.19,0,0,0-.36-1.27l7.69-23.16a2.34,2.34,0,0,0,1-.31,4.52,4.52,0,0,0,1.29-1.19l10.63,9.69a4.45,4.45,0,0,0-.48,1.89,1.9,1.9,0,0,0,.84,1.75,1.51,1.51,0,0,0,.78.2,2.33,2.33,0,0,0,1.16-.34,5,5,0,0,0,2.23-3.37l8.39,1.37a1.74,1.74,0,0,0,.8,1.31,1.5,1.5,0,0,0,.78.21,2.38,2.38,0,0,0,1.16-.35,5,5,0,0,0,2.27-3.81l4.88-9.64A.5.5,0,0,0,343.68,138.88ZM233.53,218.63a1,1,0,0,1-.94.14,1,1,0,0,1-.35-.88A4,4,0,0,1,234,214.8a1.44,1.44,0,0,1,.65-.21.61.61,0,0,1,.28.07,1,1,0,0,1,.35.88A4,4,0,0,1,233.53,218.63Zm12.18-21.11a1,1,0,0,1-.93.14,1,1,0,0,1-.35-.88,4,4,0,0,1,1.78-3.08,1.36,1.36,0,0,1,.66-.21.64.64,0,0,1,.28.06,1,1,0,0,1,.34.89A4,4,0,0,1,245.71,197.52Zm12.19,2.35a1,1,0,0,1-.94.14,1,1,0,0,1-.34-.88A4,4,0,0,1,258.4,196a1.36,1.36,0,0,1,.66-.21.53.53,0,0,1,.28.07,1,1,0,0,1,.34.88A4,4,0,0,1,257.9,199.87Zm16.25-9.38a1,1,0,0,1-.94.14,1,1,0,0,1-.35-.88,4,4,0,0,1,1.79-3.09,1.33,1.33,0,0,1,.65-.21.51.51,0,0,1,.28.07,1,1,0,0,1,.35.88A4,4,0,0,1,274.15,190.49Zm10.32-27.1a1,1,0,0,1-.94.14l-.08-.07,0,0a1.13,1.13,0,0,1-.24-.79,4,4,0,0,1,1.78-3.09,1.33,1.33,0,0,1,.65-.21.61.61,0,0,1,.28.07,1,1,0,0,1,.35.88A4,4,0,0,1,284.47,163.39Zm13.63,6.27a1,1,0,0,1-.94.14,1,1,0,0,1-.34-.88,4,4,0,0,1,1.78-3.09,1.36,1.36,0,0,1,.66-.21.53.53,0,0,1,.28.07.38.38,0,0,1,.09.09h0a1.08,1.08,0,0,1,.25.79A4,4,0,0,1,298.1,169.66ZM308.67,141a1,1,0,0,1-.93.14,1,1,0,0,1-.35-.88,4,4,0,0,1,1.78-3.09,1.48,1.48,0,0,1,.66-.21.61.61,0,0,1,.28.07,1,1,0,0,1,.34.88A4,4,0,0,1,308.67,141Zm14.22,12a1,1,0,0,1-.94.14,1,1,0,0,1-.34-.88,4,4,0,0,1,1.78-3.08,1.36,1.36,0,0,1,.66-.21.53.53,0,0,1,.28.07c.22.12.34.44.34.88A4,4,0,0,1,322.89,153Zm13.36-.83a1,1,0,0,1-.94.15,1,1,0,0,1-.35-.89,4,4,0,0,1,1.79-3.08,1.33,1.33,0,0,1,.65-.21.51.51,0,0,1,.28.07,1,1,0,0,1,.35.88A4,4,0,0,1,336.25,152.13Z" style="fill:#407BFF"></path><path d="M274.35,217.82c-.16-.53-.67-.7-1.25-.36l-50.21,29a2.64,2.64,0,0,0-.95,1l-4.05-2.37a2.67,2.67,0,0,1,.94-1l50.2-29a2.84,2.84,0,0,1,2.6,0l1.47.84A2.93,2.93,0,0,1,274.35,217.82Z" style="fill:#ebebeb"></path><path d="M274.4,218.21v39.22a2.89,2.89,0,0,1-1.29,2.25l-47.45,27.39-2.76,1.6-.2.1h0c-.62.22-1.07-.13-1.07-.86V248.7a2.58,2.58,0,0,1,.35-1.22,2.64,2.64,0,0,1,.95-1l50.21-29c.58-.34,1.09-.17,1.25.36,0,0,0,.06,0,.1A1.43,1.43,0,0,1,274.4,218.21Z" style="fill:#fafafa"></path><path d="M222.66,288.78l-.16.06a.9.9,0,0,1-.22.06,1.86,1.86,0,0,1-.34.06l-.34,0a3.27,3.27,0,0,1-.7-.08,2.34,2.34,0,0,1-.61-.23l-1.46-.85a2.86,2.86,0,0,1-1.3-2.25V246.36a2.67,2.67,0,0,1,.36-1.25l4.05,2.37a2.58,2.58,0,0,0-.35,1.22v39.22C221.59,288.65,222,289,222.66,288.78Z" style="fill:#e0e0e0"></path><path d="M225.65,281.38V255.24a1.92,1.92,0,0,1,.87-1.5l2.33-1.35c.48-.27.86,0,.86.5V279a1.91,1.91,0,0,1-.86,1.5l-2.33,1.34C226,282.16,225.65,281.93,225.65,281.38Z" style="fill:#407BFF"></path><path d="M233.78,276.69V245.86a1.9,1.9,0,0,1,.86-1.5L237,243c.48-.27.87,0,.87.5v30.83a1.89,1.89,0,0,1-.87,1.5l-2.33,1.35C234.16,277.47,233.78,277.24,233.78,276.69Z" style="fill:#407BFF"></path><path d="M241.9,272V257.2a1.92,1.92,0,0,1,.87-1.5l2.33-1.34c.47-.28.86-.05.86.5v14.79a1.88,1.88,0,0,1-.86,1.5l-2.33,1.35C242.29,272.78,241.9,272.55,241.9,272Z" style="fill:#407BFF"></path><path d="M250,267.32V248.13a1.91,1.91,0,0,1,.87-1.5l2.33-1.35c.48-.27.87-.05.87.5V265a1.89,1.89,0,0,1-.87,1.5l-2.33,1.35C250.41,268.1,250,267.87,250,267.32Z" style="fill:#407BFF"></path><path d="M258.15,262.63V256.1a1.92,1.92,0,0,1,.86-1.5l2.34-1.35c.47-.27.86-.05.86.5v6.53a1.92,1.92,0,0,1-.86,1.5L259,263.13C258.54,263.4,258.15,263.18,258.15,262.63Z" style="fill:#407BFF"></path><path d="M266.27,257.94V236.48a1.92,1.92,0,0,1,.87-1.5l2.33-1.34c.48-.28.87,0,.87.5v21.45a1.89,1.89,0,0,1-.87,1.5l-2.33,1.35C266.66,258.71,266.27,258.49,266.27,257.94Z" style="fill:#407BFF"></path><path d="M347.46,175.6c-.16-.53-.67-.7-1.25-.36l-62.39,36a2.64,2.64,0,0,0-.95,1l-4.05-2.37a2.67,2.67,0,0,1,.94-1l62.38-36a2.84,2.84,0,0,1,2.6,0l1.47.84A2.93,2.93,0,0,1,347.46,175.6Z" style="fill:#ebebeb"></path><path d="M347.51,176v39.22a2.89,2.89,0,0,1-1.29,2.25l-59.63,34.43-2.76,1.6-.2.1h0c-.62.22-1.07-.13-1.07-.86V213.52a2.58,2.58,0,0,1,.35-1.22,2.64,2.64,0,0,1,.95-1l62.39-36c.58-.34,1.09-.17,1.25.36,0,0,0,.06,0,.1A1.43,1.43,0,0,1,347.51,176Z" style="fill:#fafafa"></path><path d="M283.59,253.6l-.16.06a.9.9,0,0,1-.22.06,1.86,1.86,0,0,1-.34.06l-.34,0a3.27,3.27,0,0,1-.7-.08,2.34,2.34,0,0,1-.61-.23l-1.46-.85a2.86,2.86,0,0,1-1.3-2.25V211.18a2.67,2.67,0,0,1,.36-1.25l4.05,2.37a2.58,2.58,0,0,0-.35,1.22v39.22C282.52,253.47,283,253.82,283.59,253.6Z" style="fill:#e0e0e0"></path><path d="M305.61,207.9l-3.23,12a8.65,8.65,0,0,1-1.38,2.66l-10.43,12.53a6.14,6.14,0,0,1-2.52-4.1c-.73-4,1.33-9.54,5.36-14.39.69-.82,1.39-1.59,2.11-2.32A25.66,25.66,0,0,1,305.61,207.9Z" style="fill:#407BFF"></path><path d="M314.3,223.06c-4.63,7.79-13.43,13.67-20,13.26a7.42,7.42,0,0,1-2.62-.58l10.28-12.35a3.13,3.13,0,0,1,2.12-1h.11Z" style="fill:#407BFF"></path><path d="M313.41,207.7l-9.58,11.51L307,207.5A9.7,9.7,0,0,1,313.41,207.7Z" style="fill:#407BFF"></path><path d="M315,221.88l-10.71-.66a1.16,1.16,0,0,1-.35-.08.52.52,0,0,1,.09-.2.62.62,0,0,1,.09-.12l10.43-12.53C317.94,210.63,318.12,215.87,315,221.88Z" style="fill:#407BFF"></path><path d="M321.35,199.5c0,.72.59,1,1.3.55l19.5-11.26a2.68,2.68,0,0,0,1.3-2c0-.72-.58-1-1.3-.56l-19.5,11.26A2.74,2.74,0,0,0,321.35,199.5Z" style="fill:#407BFF"></path><path d="M321.35,207.34c0,.72.59,1,1.3.55l19.5-11.25a2.71,2.71,0,0,0,1.3-2.06c0-.72-.58-1-1.3-.55l-19.5,11.25A2.74,2.74,0,0,0,321.35,207.34Z" style="fill:#e0e0e0"></path><path d="M321.35,212.18c0,.72.59,1,1.3.55l19.5-11.26a2.68,2.68,0,0,0,1.3-2.05c0-.72-.58-1-1.3-.56l-19.5,11.26A2.74,2.74,0,0,0,321.35,212.18Z" style="fill:#e0e0e0"></path><path d="M321.35,217c0,.72.59,1,1.3.56l19.5-11.26a2.68,2.68,0,0,0,1.3-2.06c0-.72-.58-1-1.3-.55L322.65,215A2.71,2.71,0,0,0,321.35,217Z" style="fill:#e0e0e0"></path><path d="M321.35,221.85c0,.72.59,1,1.3.56l19.5-11.26a2.71,2.71,0,0,0,1.3-2.06c0-.72-.58-1-1.3-.55l-19.5,11.26A2.71,2.71,0,0,0,321.35,221.85Z" style="fill:#e0e0e0"></path><path d="M205.29,213.14c-.16-.54-.66-.71-1.25-.36l-34,19.6a2.77,2.77,0,0,0-.92,1L165.1,231a2.69,2.69,0,0,1,.92-1l34-19.61a2.9,2.9,0,0,1,2.6,0l1.46.85A2.86,2.86,0,0,1,205.29,213.14Z" style="fill:#ebebeb"></path><path d="M205.34,213.53V224.6a2.87,2.87,0,0,1-1.3,2.25l-34,19.6-.24.12-.06,0c-.58.17-1-.18-1-.89V234.63a2.59,2.59,0,0,1,.38-1.28,2.77,2.77,0,0,1,.92-1l34-19.6c.59-.35,1.09-.18,1.25.36a.3.3,0,0,1,0,.1A1.5,1.5,0,0,1,205.34,213.53Z" style="fill:#fafafa"></path><path d="M169.78,246.59a2.52,2.52,0,0,1-.49.13,2.9,2.9,0,0,1-1.52-.13l-.29-.14-1.46-.84a2.86,2.86,0,0,1-1.3-2.25V232.29a2.7,2.7,0,0,1,.38-1.28l4.06,2.34a2.59,2.59,0,0,0-.38,1.28V245.7C168.78,246.41,169.2,246.76,169.78,246.59Z" style="fill:#e0e0e0"></path><path d="M205.29,234.24c-.16-.54-.66-.71-1.25-.36l-34,19.6a2.77,2.77,0,0,0-.92,1l-4.06-2.34a2.69,2.69,0,0,1,.92-1l34-19.61a2.9,2.9,0,0,1,2.6,0l1.46.85A2.86,2.86,0,0,1,205.29,234.24Z" style="fill:#ebebeb"></path><path d="M205.34,234.63V245.7A2.87,2.87,0,0,1,204,248l-34,19.6-.24.12-.06,0c-.58.17-1-.18-1-.89V255.73a2.59,2.59,0,0,1,.38-1.28,2.77,2.77,0,0,1,.92-1l34-19.6c.59-.35,1.09-.18,1.25.36a.3.3,0,0,1,0,.1A1.5,1.5,0,0,1,205.34,234.63Z" style="fill:#fafafa"></path><path d="M169.78,267.69a2.52,2.52,0,0,1-.49.13,2.9,2.9,0,0,1-1.52-.13l-.29-.14-1.46-.84a2.86,2.86,0,0,1-1.3-2.25V253.39a2.7,2.7,0,0,1,.38-1.28l4.06,2.34a2.59,2.59,0,0,0-.38,1.28V266.8C168.78,267.51,169.2,267.86,169.78,267.69Z" style="fill:#e0e0e0"></path><path d="M205.29,255.35c-.16-.54-.66-.71-1.25-.36l-34,19.6a2.77,2.77,0,0,0-.92,1l-4.06-2.34a2.69,2.69,0,0,1,.92-1l34-19.61a2.9,2.9,0,0,1,2.6,0l1.46.85A2.86,2.86,0,0,1,205.29,255.35Z" style="fill:#ebebeb"></path><path d="M205.34,255.74v11.07a2.87,2.87,0,0,1-1.3,2.25l-34,19.6-.24.12-.06,0c-.58.17-1-.18-1-.89V276.84a2.59,2.59,0,0,1,.38-1.28,2.77,2.77,0,0,1,.92-1L204,255c.59-.35,1.09-.18,1.25.36a.3.3,0,0,1,0,.1A1.5,1.5,0,0,1,205.34,255.74Z" style="fill:#fafafa"></path><path d="M169.78,288.8a2.52,2.52,0,0,1-.49.13,2.9,2.9,0,0,1-1.52-.13l-.29-.14-1.46-.84a2.86,2.86,0,0,1-1.3-2.25V274.5a2.7,2.7,0,0,1,.38-1.28l4.06,2.34a2.59,2.59,0,0,0-.38,1.28v11.07C168.78,288.62,169.2,289,169.78,288.8Z" style="fill:#e0e0e0"></path><path d="M205.29,276.46c-.16-.54-.66-.71-1.25-.36l-34,19.6a2.77,2.77,0,0,0-.92,1l-4.06-2.34a2.69,2.69,0,0,1,.92-1l34-19.61a2.9,2.9,0,0,1,2.6,0l1.46.85A2.86,2.86,0,0,1,205.29,276.46Z" style="fill:#ebebeb"></path><path d="M205.34,276.85v11.07a2.87,2.87,0,0,1-1.3,2.25l-34,19.6-.24.12-.06,0c-.58.17-1-.18-1-.89V298a2.59,2.59,0,0,1,.38-1.28,2.77,2.77,0,0,1,.92-1l34-19.6c.59-.35,1.09-.18,1.25.36a.3.3,0,0,1,0,.1A1.5,1.5,0,0,1,205.34,276.85Z" style="fill:#fafafa"></path><path d="M169.78,309.91a2.52,2.52,0,0,1-.49.13,2.9,2.9,0,0,1-1.52-.13l-.29-.14-1.46-.84a2.86,2.86,0,0,1-1.3-2.25V295.61a2.7,2.7,0,0,1,.38-1.28l4.06,2.34a2.59,2.59,0,0,0-.38,1.28V309C168.78,309.73,169.2,310.08,169.78,309.91Z" style="fill:#e0e0e0"></path><path d="M208.86,195.61a.24.24,0,0,1,.13,0l-3.65-2.1v-1.13a1.5,1.5,0,0,0,0-.29.3.3,0,0,0,0-.1,2.86,2.86,0,0,0-1.25-1.86l-1.46-.85a2.9,2.9,0,0,0-2.6,0l-34,19.61a2.87,2.87,0,0,0-1.3,2.25v11.07a2.86,2.86,0,0,0,1.3,2.25l1.46.84.29.14a2.9,2.9,0,0,0,1.52.13,2.52,2.52,0,0,0,.49-.13l.06,0,.24-.12,34-19.6a2.87,2.87,0,0,0,1.3-2.25V200.3l3.71-4.28A.25.25,0,0,0,208.86,195.61Z" style="fill:#407BFF"></path><path d="M169.78,225.48a2.52,2.52,0,0,1-.49.13,2.9,2.9,0,0,1-1.52-.13l-.29-.14L166,224.5a2.86,2.86,0,0,1-1.3-2.25V211.18a2.7,2.7,0,0,1,.38-1.28l4.06,2.34a2.59,2.59,0,0,0-.38,1.28v11.07C168.78,225.3,169.2,225.65,169.78,225.48Z" style="opacity:0.1"></path><path d="M205.29,192c-.16-.54-.66-.71-1.25-.36l-34,19.6a2.77,2.77,0,0,0-.92,1l-4.06-2.34a2.69,2.69,0,0,1,.92-1l34-19.61a2.9,2.9,0,0,1,2.6,0l1.46.85A2.86,2.86,0,0,1,205.29,192Z" style="fill:#fff;opacity:0.4"></path><path d="M208.86,195.61h-3.52v-2.06l3.65,2.1A.24.24,0,0,0,208.86,195.61Z" style="fill:#fff;opacity:0.4"></path></g></g><g id="freepik--magnifying-glass--inject-144"><g id="freepik--Lens--inject-144"><path d="M163.31,334.2h0a3.32,3.32,0,0,0-2-2.74,10.47,10.47,0,0,0-9.5,0,3.34,3.34,0,0,0-2,2.74h0l-2.66,69.87h0c-.1,1.45.81,2.92,2.73,4a14.66,14.66,0,0,0,13.28,0c1.92-1.11,2.82-2.58,2.73-4h0Z" style="fill:#407BFF"></path><path d="M151.85,331.46c-2.62,1.51-2.62,4,0,5.48a10.47,10.47,0,0,0,9.5,0c2.62-1.51,2.62-4,0-5.48A10.47,10.47,0,0,0,151.85,331.46Z" style="opacity:0.15"></path><path d="M159.47,311.92a6.31,6.31,0,0,0-5.74,0,2,2,0,0,0-1.19,1.65h0V334.2h0a2,2,0,0,0,1.19,1.66,6.38,6.38,0,0,0,5.74,0,2,2,0,0,0,1.19-1.66V313.57h0A2,2,0,0,0,159.47,311.92Z" style="fill:#263238"></path><path d="M201.8,261.39c0-.41,0-.81-.06-1.21s-.05-.79-.09-1.18-.05-.52-.08-.78c-.07-.68-.17-1.35-.28-2,0-.29-.1-.59-.16-.88s-.11-.55-.17-.82c-.17-.74-.35-1.46-.56-2.15-.11-.33-.21-.66-.32-1a.88.88,0,0,1-.05-.15c-.12-.32-.23-.63-.35-.93s-.28-.7-.44-1-.22-.49-.35-.73a3.6,3.6,0,0,0-.26-.52,5.28,5.28,0,0,0-.33-.62s-.05-.1-.08-.14-.21-.36-.32-.54-.15-.23-.22-.34a18.25,18.25,0,0,0-1.72-2.29l-.32-.36-.27-.28-.35-.35a11.18,11.18,0,0,0-1-.93c-.17-.15-.35-.29-.53-.42l-.55-.4a9.66,9.66,0,0,0-.89-.58l-.24-.15-.05,0h0l-14.17-8.18h0l-.08,0a17.78,17.78,0,0,0-8.9-2.25c-4.64,0-9.88,1.52-15.43,4.72-19.06,11-34.52,37.78-34.52,59.8,0,11,3.84,18.7,10,22.32l.06,0h0l14.18,8.17h0l.06,0h0l.17.09a9.16,9.16,0,0,0,.82.43c.34.17.69.32,1,.46s.63.25,1,.35l.51.15a3.47,3.47,0,0,0,.55.16,5.73,5.73,0,0,0,.56.14,3,3,0,0,0,.41.09c.24.05.5.1.75.13a.51.51,0,0,0,.17,0l.9.12c5.15.54,11.12-.91,17.52-4.6,19.07-11,34.53-37.79,34.53-59.8C201.83,262.43,201.82,261.91,201.8,261.39Zm-23.12-15.57a31.09,31.09,0,0,1,1.08,8.4c0,19.42-14.21,44-31,53.74a30,30,0,0,1-7.87,3.27,31.18,31.18,0,0,1-1.09-8.41c0-19.42,14.21-44,31-53.74A29.86,29.86,0,0,1,178.68,245.82Z" style="fill:#407BFF"></path><path d="M142.41,324.9,128.64,317c-6.21-3.63-10-11.35-10-22.31,0-9.82,3.08-20.58,8.17-30.46l14.18,8.18c-5.1,9.88-8.17,20.64-8.17,30.46C132.77,313.56,136.43,321.18,142.41,324.9Z" style="opacity:0.1"></path><path d="M201.8,261.39c0-.41,0-.81-.06-1.21s-.05-.79-.09-1.18-.05-.52-.08-.78c-.07-.68-.17-1.35-.28-2,0-.29-.1-.59-.16-.88s-.11-.55-.17-.82c-.17-.74-.35-1.46-.56-2.15-.11-.33-.21-.66-.32-1a.88.88,0,0,1-.05-.15c-.12-.32-.23-.63-.35-.93s-.28-.7-.44-1-.22-.49-.35-.73a3.6,3.6,0,0,0-.26-.52,5.28,5.28,0,0,0-.33-.62s-.05-.1-.08-.14-.21-.36-.32-.54-.15-.23-.22-.34a18.25,18.25,0,0,0-1.72-2.29l-.32-.36-.27-.28-.35-.35a11.18,11.18,0,0,0-1-.93c-.17-.15-.35-.29-.53-.42l-.55-.4a9.66,9.66,0,0,0-.89-.58c-6.27-3.81-15-3.36-24.71,2.23-19.07,11-34.53,37.78-34.53,59.8,0,11.15,4,18.94,10.35,22.48a9.16,9.16,0,0,0,.82.43c.34.17.69.32,1,.46s.63.25,1,.35l.51.15a3.47,3.47,0,0,0,.55.16,5.73,5.73,0,0,0,.56.14,3,3,0,0,0,.41.09c.24.05.5.1.75.13a.51.51,0,0,0,.17,0l.9.12c5.15.54,11.12-.91,17.52-4.6,19.07-11,34.53-37.79,34.53-59.8C201.83,262.43,201.82,261.91,201.8,261.39Zm-38,55.31c-4.28,2.47-8.4,3.77-11.92,3.77-6.61,0-9.65-4.51-11-9.24a31.18,31.18,0,0,1-1.09-8.41c0-19.42,14.21-44,31-53.74a29.86,29.86,0,0,1,7.88-3.26,17.26,17.26,0,0,1,4-.51c10.93,0,12.1,12.34,12.1,17.65C194.82,282.38,180.62,307,163.8,316.7Z" style="fill:#fff;opacity:0.4"></path><path d="M194.82,263c0,19.42-14.2,44-31,53.74-4.28,2.47-8.4,3.77-11.92,3.77-6.61,0-9.65-4.51-11-9.24a30,30,0,0,0,7.87-3.27c16.82-9.71,31-34.32,31-53.74a31.09,31.09,0,0,0-1.08-8.4,17.26,17.26,0,0,1,4-.51C193.65,245.31,194.82,257.65,194.82,263Z" style="opacity:0.1"></path><path d="M188.78,259.57c0,19.42-14.2,44-31,53.74-4.28,2.47-8.4,3.77-11.92,3.77a12.55,12.55,0,0,1-2.09-.17,15.3,15.3,0,0,1-2.89-5.68,31.18,31.18,0,0,1-1.09-8.41c0-19.42,14.21-44,31-53.74a29.86,29.86,0,0,1,7.88-3.26,17.26,17.26,0,0,1,4-.51,12.67,12.67,0,0,1,2.1.17C188.27,249.55,188.78,256.08,188.78,259.57Z" style="fill:#fff;opacity:0.7000000000000001"></path><path d="M154.64,337.9l-1.79,71.33A11.52,11.52,0,0,1,150,408.1c-1.92-1.11-2.83-2.58-2.73-4h0l2.66-69.86a3.34,3.34,0,0,0,2,2.74A8.77,8.77,0,0,0,154.64,337.9Z" style="opacity:0.1"></path></g></g></svg>